# Blender 4.0.2
# www.blender.org
o wooden_spatula
v -0.031959 0.123485 0.004303
v 0.022151 0.143908 0.006129
v -0.032658 0.140563 0.005635
v -0.011029 -0.036557 0.002283
v 0.015503 -0.106640 0.002283
v 0.014439 -0.116491 0.002283
v 0.011179 -0.122203 0.002283
v 0.006300 -0.125910 0.002283
v 0.000545 -0.127212 0.002283
v -0.005210 -0.125910 0.002283
v -0.010089 -0.122203 0.002283
v -0.013349 -0.116491 0.002283
v -0.014391 -0.106640 0.002283
v 0.012489 -0.036557 0.002283
v -0.009594 0.035777 0.002283
v 0.008282 0.035777 0.002283
v -0.023069 0.085592 0.002460
v -0.016787 0.067318 0.002188
v 0.014105 0.067318 0.002188
v 0.018351 0.085592 0.002460
v 0.022246 0.124937 0.004377
v -0.012228 0.052930 0.002015
v 0.009956 0.052930 0.002015
v 0.000545 -0.036557 0.002283
v -0.005275 0.142446 0.005913
v 0.021174 0.155987 0.007914
v 0.012546 0.162145 0.008824
v 0.018199 0.160933 0.008716
v -0.031363 0.147680 0.006686
v -0.020479 0.156977 0.008060
v -0.027871 0.153742 0.007582
v -0.000656 0.035777 0.002283
v -0.001341 0.067318 0.002188
v -0.002359 0.085592 0.002460
v -0.004819 0.124227 0.004341
v -0.001136 0.052930 0.002015
v 0.000545 -0.116491 0.002283
v -0.005063 0.152208 0.007355
v -0.005044 0.160055 0.008515
v -0.028008 0.103552 0.003146
v 0.020915 0.104179 0.003177
v -0.003566 0.103864 0.003161
v -0.010353 0.044223 0.002283
v 0.008478 0.044223 0.002283
v -0.000896 0.044223 0.002283
v 0.015033 -0.096671 0.002283
v -0.013877 -0.096671 0.002283
v 0.000545 -0.096671 0.002283
v -0.005242 -0.036557 0.002283
v -0.009064 0.067318 0.002188
v -0.012714 0.085592 0.002460
v -0.018389 0.123856 0.004322
v -0.006682 0.052930 0.002015
v -0.019732 0.141452 0.005766
v -0.020342 0.149577 0.006967
v -0.005125 0.035777 0.002283
v -0.006923 -0.106640 0.002283
v -0.006402 -0.116491 0.002283
v -0.016162 0.103708 0.003153
v -0.005529 0.044223 0.002283
v -0.006666 -0.096671 0.002283
v 0.011518 0.143351 0.006047
v 0.003813 0.035777 0.002283
v 0.008024 -0.106640 0.002283
v 0.007492 -0.116491 0.002283
v 0.006517 -0.036557 0.002283
v 0.006382 0.067318 0.002188
v 0.007996 0.085592 0.002460
v 0.010433 0.124632 0.004361
v 0.004410 0.052930 0.002015
v 0.011481 0.154591 0.007707
v 0.009302 0.104031 0.003170
v 0.003791 0.044223 0.002283
v 0.007789 -0.096671 0.002283
v -0.002791 -0.106671 0.002283
v -0.001844 -0.109041 0.002283
v 0.000501 -0.110048 0.002283
v 0.000586 -0.103379 0.002283
v 0.002931 -0.104385 0.002283
v -0.001784 -0.104326 0.002283
v 0.003878 -0.106755 0.002283
v 0.002872 -0.109101 0.002283
v -0.031956 0.123481 0.003149
v 0.022153 0.144084 0.004991
v -0.032654 0.140704 0.004492
v -0.011029 -0.036557 0.000000
v 0.015503 -0.106640 0.000000
v 0.014439 -0.116491 0.000000
v 0.011179 -0.122203 0.000000
v 0.006300 -0.125910 0.000000
v 0.000545 -0.127212 0.000000
v -0.005210 -0.125910 0.000000
v -0.010089 -0.122203 0.000000
v -0.013349 -0.116491 0.000000
v -0.014391 -0.106640 0.000000
v 0.012489 -0.036557 0.000000
v -0.009594 0.035777 0.000000
v 0.008282 0.035777 0.000000
v -0.023070 0.085763 0.000787
v -0.016787 0.067416 0.000237
v 0.014105 0.067415 0.000237
v 0.018351 0.085757 0.000786
v 0.022247 0.124953 0.003224
v -0.012228 0.052946 0.000000
v 0.009956 0.052946 0.000000
v 0.000545 -0.036557 0.000000
v -0.005272 0.142611 0.004773
v 0.021174 0.156268 0.006791
v 0.012546 0.162426 0.007701
v 0.018199 0.161214 0.007593
v -0.031363 0.147961 0.005563
v -0.020479 0.157257 0.006937
v -0.027871 0.154023 0.006459
v -0.000656 0.035777 0.000000
v -0.001341 0.067413 0.000237
v -0.002359 0.085751 0.000786
v -0.004816 0.124233 0.003187
v -0.001136 0.052944 0.000000
v 0.000545 -0.116491 0.000000
v -0.005063 0.152488 0.006232
v -0.005044 0.160335 0.007392
v -0.028009 0.103772 0.001861
v 0.020914 0.104396 0.001892
v -0.003567 0.104081 0.001876
v -0.010353 0.044223 0.000000
v 0.008478 0.044223 0.000000
v -0.000896 0.044223 0.000000
v 0.015033 -0.096671 0.000000
v -0.013877 -0.096671 0.000000
v 0.000545 -0.096671 0.000000
v -0.005242 -0.036557 0.000000
v -0.009064 0.067413 0.000237
v -0.012715 0.085751 0.000786
v -0.018386 0.123854 0.003168
v -0.006682 0.052944 0.000000
v -0.019728 0.141608 0.004625
v -0.020342 0.149858 0.005844
v -0.005125 0.035777 0.000000
v -0.006923 -0.106640 0.000000
v -0.006402 -0.116491 0.000000
v -0.016162 0.103926 0.001868
v -0.005529 0.044223 0.000000
v -0.006666 -0.096671 0.000000
v 0.011521 0.143522 0.004908
v 0.003813 0.035777 0.000000
v 0.008024 -0.106640 0.000000
v 0.007492 -0.116491 0.000000
v 0.006517 -0.036557 0.000000
v 0.006382 0.067413 0.000237
v 0.007996 0.085751 0.000786
v 0.010435 0.124643 0.003208
v 0.004410 0.052944 0.000000
v 0.011481 0.154872 0.006585
v 0.009301 0.104248 0.001885
v 0.003791 0.044223 0.000000
v 0.007789 -0.096671 0.000000
v -0.002791 -0.106671 0.000000
v -0.001844 -0.109041 0.000000
v 0.000501 -0.110048 0.000000
v 0.000586 -0.103379 0.000000
v 0.002931 -0.104385 0.000000
v -0.001784 -0.104326 0.000000
v 0.003878 -0.106755 0.000000
v 0.002872 -0.109101 0.000000
v -0.009854 -0.000390 0.002283
v 0.010177 -0.000390 0.002283
v -0.000055 -0.000390 0.002283
v -0.005183 -0.000390 0.002283
v 0.005165 -0.000390 0.002283
v -0.009854 -0.000390 0.000000
v 0.010177 -0.000390 0.000000
v -0.000055 -0.000390 0.000000
v -0.005183 -0.000390 0.000000
v 0.005165 -0.000390 0.000000
vn -0.0000 -0.0000 1.0000
vn -0.0005 -0.0735 0.9973
vn -0.0004 -0.0749 0.9972
vn -0.0004 -0.1187 0.9929
vn -0.0005 -0.1179 0.9930
vn -0.0000 0.0094 1.0000
vn -0.0000 0.0064 1.0000
vn -0.0000 -0.0137 0.9999
vn -0.0000 -0.0134 0.9999
vn -0.0000 -0.0281 0.9996
vn -0.0000 -0.0267 0.9996
vn -0.0000 -0.0481 0.9988
vn -0.0000 -0.0488 0.9988
vn -0.0000 0.0154 0.9999
vn -0.0000 0.0163 0.9999
vn -0.0009 -0.1474 0.9891
vn -0.0020 -0.1489 0.9889
vn -0.0045 -0.1524 0.9883
vn -0.0024 -0.1495 0.9888
vn -0.0009 -0.1141 0.9935
vn -0.0007 -0.1163 0.9932
vn -0.0000 -0.1462 0.9893
vn -0.0007 -0.0719 0.9974
vn -0.0008 -0.0700 0.9975
vn -0.0000 -0.0266 0.9996
vn -0.0000 0.0168 0.9999
vn -0.0001 -0.0288 0.9996
vn -0.0000 -0.0495 0.9988
vn -0.0009 -0.0696 0.9976
vn -0.0010 -0.1100 0.9939
vn -0.0000 0.0059 1.0000
vn -0.0000 -0.0000 -1.0000
vn 0.0004 0.0770 -0.9970
vn 0.0005 0.1179 -0.9930
vn 0.0004 0.1187 -0.9929
vn 0.0003 0.0782 -0.9969
vn -0.0000 0.0082 -1.0000
vn -0.0000 0.0232 -0.9997
vn -0.0000 0.0243 -0.9997
vn -0.0000 0.0093 -1.0000
vn -0.0000 0.0446 -0.9990
vn -0.0000 0.0464 -0.9989
vn -0.0002 0.0620 -0.9981
vn -0.0002 0.0622 -0.9981
vn 0.0009 0.1474 -0.9891
vn 0.0024 0.1495 -0.9888
vn 0.0045 0.1524 -0.9883
vn 0.0020 0.1489 -0.9889
vn 0.0009 0.1141 -0.9935
vn -0.0000 0.1462 -0.9893
vn 0.0007 0.1163 -0.9932
vn 0.0008 0.0735 -0.9973
vn 0.0006 0.0754 -0.9972
vn -0.0002 0.0621 -0.9981
vn -0.0000 0.0447 -0.9990
vn -0.0000 0.0476 -0.9989
vn -0.0002 0.0627 -0.9980
vn 0.0009 0.0730 -0.9973
vn 0.0010 0.1100 -0.9939
vn -0.0000 0.0095 -1.0000
vn -0.0000 0.0245 -0.9997
vn -0.9991 -0.0412 -0.0000
vn -0.9887 -0.1496 -0.0004
vn -0.9887 -0.1502 -0.0004
vn -0.9998 0.0198 -0.0000
vn 0.9995 -0.0303 -0.0000
vn 0.9514 -0.3081 -0.0000
vn 0.7519 -0.6593 -0.0000
vn 0.4224 -0.9064 -0.0000
vn -0.0000 -1.0000 -0.0000
vn -0.4224 -0.9064 -0.0000
vn -0.7519 -0.6593 -0.0000
vn -0.9517 -0.3070 -0.0000
vn -0.9996 -0.0270 -0.0000
vn 0.9983 0.0581 -0.0000
vn 0.9986 0.0530 -0.0000
vn 0.9991 0.0406 0.0089
vn 0.9996 -0.0283 -0.0020
vn 0.9995 -0.0310 -0.0023
vn 0.9991 0.0422 0.0092
vn -0.9934 -0.1141 -0.0116
vn -0.9978 0.0659 0.0124
vn -0.9977 0.0673 0.0126
vn -0.9925 -0.1213 -0.0122
vn -0.9550 -0.2951 -0.0290
vn -0.9725 -0.2314 -0.0269
vn -0.9737 -0.2266 -0.0258
vn -0.9558 -0.2926 -0.0294
vn -0.9498 -0.3123 -0.0161
vn -0.9497 -0.3128 -0.0164
vn 0.9678 -0.2515 -0.0120
vn 0.9751 -0.2215 -0.0042
vn 0.9750 -0.2221 -0.0042
vn 0.9680 -0.2505 -0.0122
vn 0.9830 -0.1828 -0.0171
vn 0.9837 -0.1792 -0.0171
vn 0.9947 -0.1025 -0.0123
vn 0.9952 -0.0975 -0.0115
vn -0.9668 -0.2555 -0.0047
vn -0.9667 -0.2560 -0.0047
vn 0.9955 -0.0948 -0.0003
vn 0.9954 -0.0955 -0.0003
vn -0.9434 0.3232 0.0739
vn -0.9366 0.3414 0.0792
vn 0.9565 0.2834 0.0692
vn 0.9488 0.3067 0.0752
vn 0.5939 0.7806 0.1950
vn 0.5701 0.7971 0.1992
vn 0.0463 0.9691 0.2422
vn 0.0441 0.9692 0.2422
vn -0.3035 0.9244 0.2310
vn -0.1582 0.9580 0.2394
vn -0.1574 0.9581 0.2394
vn -0.2996 0.9256 0.2313
vn -0.6784 0.7128 0.1781
vn -0.6590 0.7297 0.1823
vn 0.9999 0.0146 -0.0000
vn 0.9990 0.0447 -0.0000
vn -0.9988 0.0494 -0.0000
vn -0.9992 0.0399 -0.0000
vn 0.7160 0.6981 -0.0000
vn 0.0126 0.9999 -0.0000
vn -0.7160 -0.6981 -0.0000
vn -0.0126 -0.9999 -0.0000
vn 0.6981 -0.7160 -0.0000
vn 0.9999 -0.0126 -0.0000
vn -0.6981 0.7160 -0.0000
vn -0.9999 0.0126 -0.0000
vt 0.988276 0.284070
vt 0.956161 0.280006
vt 0.956161 0.256318
vt 0.975636 0.267434
vt 0.560277 0.319446
vt 0.560277 0.336537
vt 0.436953 0.330074
vt 0.436953 0.314836
vt 0.133786 0.337411
vt 0.132745 0.377690
vt 0.067780 0.377367
vt 0.069697 0.341110
vt 0.378450 0.316873
vt 0.378450 0.335784
vt 0.329386 0.349929
vt 0.329386 0.323595
vt 0.267069 0.364407
vt 0.267069 0.329098
vt 0.204146 0.333551
vt 0.203643 0.373150
vt 0.408152 0.314761
vt 0.408152 0.330742
vt 0.922571 0.278228
vt 0.922571 0.252762
vt 0.030954 0.340988
vt 0.026145 0.374040
vt 0.009059 0.363897
vt 0.004916 0.344619
vt 0.076233 0.234549
vt 0.072812 0.283847
vt 0.039164 0.284571
vt 0.048225 0.232473
vt 0.012116 0.284641
vt 0.022720 0.232008
vt 0.922571 0.329195
vt 0.888578 0.328394
vt 0.914882 0.311829
vt 0.922964 0.315058
vt 0.408152 0.282981
vt 0.408152 0.298779
vt 0.378450 0.297961
vt 0.378450 0.279050
vt 0.205251 0.246726
vt 0.204719 0.289675
vt 0.135166 0.285403
vt 0.136433 0.239131
vt 0.329386 0.270927
vt 0.329386 0.297261
vt 0.267069 0.293789
vt 0.267069 0.258480
vt 0.888578 0.353095
vt 0.683601 0.344419
vt 0.683601 0.324056
vt 0.560277 0.284160
vt 0.560277 0.301645
vt 0.436953 0.299598
vt 0.436953 0.284359
vt 0.888578 0.279104
vt 0.888578 0.303693
vt 0.683601 0.303693
vt 0.683601 0.283960
vt 0.956161 0.327380
vt 0.930961 0.311626
vt 0.922571 0.354698
vt 0.888578 0.254515
vt 0.683601 0.264227
vt 0.436953 0.269121
vt 0.408152 0.266532
vt 0.267069 0.223171
vt 0.205783 0.206331
vt 0.560277 0.268235
vt 0.137701 0.192860
vt 0.079291 0.190473
vt 0.378450 0.260139
vt 0.329386 0.244594
vt 0.054761 0.194892
vt 0.922676 0.292318
vt 0.914678 0.295750
vt 0.930758 0.295546
vt 0.956161 0.351068
vt 0.033866 0.206801
vt 0.956161 0.303693
vt 0.992715 0.303693
vt 0.988276 0.323316
vt 0.975636 0.339952
vt 0.934190 0.303544
vt 0.911450 0.303831
vt 0.009394 0.112508
vt 0.022034 0.095872
vt 0.041509 0.084757
vt 0.041509 0.108444
vt 0.437391 0.147884
vt 0.560715 0.143275
vt 0.560715 0.158513
vt 0.437391 0.164975
vt 0.864025 0.165855
vt 0.928660 0.169557
vt 0.930592 0.205813
vt 0.865083 0.206133
vt 0.619250 0.145311
vt 0.668595 0.152034
vt 0.668602 0.178368
vt 0.619257 0.164223
vt 0.731152 0.157537
vt 0.731174 0.192846
vt 0.794336 0.161988
vt 0.794841 0.201587
vt 0.589516 0.143199
vt 0.589516 0.159180
vt 0.075099 0.106666
vt 0.075099 0.081201
vt 0.967780 0.169427
vt 0.993818 0.173058
vt 0.989675 0.192337
vt 0.972589 0.202479
vt 0.922075 0.063000
vt 0.950510 0.060912
vt 0.959571 0.113011
vt 0.925524 0.112296
vt 0.976015 0.060447
vt 0.986619 0.113080
vt 0.075099 0.157634
vt 0.074706 0.143496
vt 0.082788 0.140267
vt 0.109092 0.156832
vt 0.589516 0.111419
vt 0.619250 0.107489
vt 0.619250 0.126400
vt 0.589516 0.127218
vt 0.793234 0.075162
vt 0.861332 0.067581
vt 0.862624 0.113851
vt 0.793765 0.118112
vt 0.668595 0.099366
vt 0.731153 0.086919
vt 0.731152 0.122228
vt 0.668595 0.125700
vt 0.314068 0.152494
vt 0.314068 0.172857
vt 0.109092 0.181533
vt 0.437391 0.112598
vt 0.560715 0.112798
vt 0.560715 0.128036
vt 0.437391 0.130084
vt 0.109092 0.107543
vt 0.314068 0.112399
vt 0.314068 0.132131
vt 0.109092 0.132131
vt 0.041509 0.155818
vt 0.066709 0.140064
vt 0.075099 0.183136
vt 0.109092 0.082954
vt 0.314068 0.092666
vt 0.560715 0.097560
vt 0.589516 0.094970
vt 0.731193 0.051610
vt 0.792708 0.034767
vt 0.437391 0.096674
vt 0.860056 0.021310
vt 0.918962 0.018926
vt 0.619258 0.088577
vt 0.668604 0.073032
vt 0.943974 0.023331
vt 0.082991 0.124188
vt 0.074994 0.120756
vt 0.066912 0.123985
vt 0.041509 0.179506
vt 0.964869 0.035240
vt 0.041509 0.132131
vt 0.004955 0.132131
vt 0.022034 0.168390
vt 0.009394 0.151754
vt 0.063480 0.131982
vt 0.086220 0.132270
vt 0.588049 0.020754
vt 0.616965 0.020754
vt 0.616965 0.028455
vt 0.588049 0.028455
vt 0.464723 0.020754
vt 0.464723 0.028455
vt 0.102099 0.045469
vt 0.068313 0.045469
vt 0.068313 0.037767
vt 0.102099 0.037767
vt 0.045889 0.045469
vt 0.045889 0.037767
vt 0.024995 0.045469
vt 0.024995 0.037767
vt 0.004876 0.045469
vt 0.004876 0.037767
vt 0.004879 0.020754
vt 0.024998 0.020754
vt 0.024998 0.028455
vt 0.004879 0.028455
vt 0.045891 0.020754
vt 0.045891 0.028455
vt 0.068315 0.020754
vt 0.068315 0.028455
vt 0.102092 0.020754
vt 0.102092 0.028455
vt 0.464872 0.045469
vt 0.341295 0.045469
vt 0.341295 0.037767
vt 0.464872 0.037767
vt 0.320600 0.011163
vt 0.255296 0.011163
vt 0.255296 0.006380
vt 0.320600 0.006380
vt 0.652047 0.011163
vt 0.593282 0.011163
vt 0.593282 0.006380
vt 0.652047 0.006380
vt 0.784890 0.011163
vt 0.721157 0.011163
vt 0.721157 0.006380
vt 0.784890 0.006380
vt 0.850982 0.011163
vt 0.850982 0.006380
vt 0.056134 0.011162
vt 0.004885 0.011162
vt 0.004885 0.006380
vt 0.056134 0.006380
vt 0.120299 0.011162
vt 0.120299 0.006380
vt 0.184509 0.011162
vt 0.184509 0.006380
vt 0.902636 0.011163
vt 0.902636 0.006380
vt 0.647322 0.045469
vt 0.617175 0.045469
vt 0.617175 0.037767
vt 0.647322 0.037767
vt 0.568095 0.011163
vt 0.568095 0.006380
vt 0.362590 0.011163
vt 0.362590 0.006380
vt 0.382480 0.011163
vt 0.382480 0.006380
vt 0.402218 0.011163
vt 0.402218 0.006380
vt 0.516432 0.011163
vt 0.462688 0.011163
vt 0.462688 0.006380
vt 0.516432 0.006380
vt 0.544021 0.011163
vt 0.544021 0.006380
vt 0.647367 0.020754
vt 0.647367 0.028455
vt 0.588366 0.045469
vt 0.588366 0.037767
vt 0.136131 0.045469
vt 0.136131 0.037767
vt 0.136130 0.020754
vt 0.136130 0.028455
vt 0.341335 0.020754
vt 0.341335 0.028455
vt 0.700248 0.028538
vt 0.691545 0.028538
vt 0.691545 0.020753
vt 0.700248 0.020753
vt 0.665436 0.028538
vt 0.656733 0.028538
vt 0.656733 0.020753
vt 0.665436 0.020753
vt 0.726358 0.028538
vt 0.717655 0.028538
vt 0.717655 0.020753
vt 0.726358 0.020753
vt 0.708952 0.028538
vt 0.708952 0.020753
vt 0.682842 0.028538
vt 0.682842 0.020753
vt 0.674139 0.028538
vt 0.674139 0.020753
s 1
f 10/1/1 58/2/1 12/3/1 11/4/1
f 169/5/1 166/6/1 16/7/1 63/8/1
f 69/9/2 21/10/3 2/11/4 62/12/5
f 70/13/6 23/14/7 19/15/8 67/16/9
f 67/16/9 19/15/8 20/17/10 68/18/11
f 72/19/12 41/20/13 21/10/3 69/9/2
f 73/21/14 44/22/15 23/14/7 70/13/6
f 57/23/1 13/24/1 12/3/1 58/2/1
f 71/25/16 26/26/17 28/27/18 27/28/19
f 62/12/5 2/11/4 26/26/17 71/25/16
f 54/29/20 25/30/21 38/31/22 55/32/22
f 55/32/22 38/31/22 39/33/22 30/34/22
f 64/35/1 74/36/1 79/37/1 81/38/1
f 60/39/14 45/40/14 36/41/6 53/42/6
f 59/43/12 42/44/12 35/45/23 52/46/24
f 50/47/9 33/48/9 34/49/25 51/50/25
f 53/42/6 36/41/6 33/48/9 50/47/9
f 52/46/24 35/45/23 25/30/21 54/29/20
f 74/36/1 46/51/1 14/52/1 66/53/1
f 168/54/1 167/55/1 32/56/1 56/57/1
f 51/50/25 34/49/25 42/44/12 59/43/12
f 68/18/11 20/17/10 41/20/13 72/19/12
f 56/57/1 32/56/1 45/40/14 60/39/14
f 63/8/1 16/7/1 44/22/15 73/21/14
f 61/58/1 48/59/1 24/60/1 49/61/1
f 65/62/1 64/35/1 81/38/1 82/63/1
f 64/35/1 5/64/1 46/51/1 74/36/1
f 13/24/1 57/23/1 61/58/1 47/65/1
f 47/65/1 61/58/1 49/61/1 4/66/1
f 15/67/1 56/57/1 60/39/14 43/68/26
f 17/69/27 51/50/25 59/43/12 40/70/28
f 165/71/1 168/54/1 56/57/1 15/67/1
f 1/72/29 52/46/24 54/29/20 3/73/30
f 22/74/31 53/42/6 50/47/9 18/75/8
f 18/75/8 50/47/9 51/50/25 17/69/27
f 40/70/28 59/43/12 52/46/24 1/72/29
f 43/68/26 60/39/14 53/42/6 22/74/31
f 3/73/30 54/29/20 55/32/22 29/76/22
f 61/58/1 57/23/1 75/77/1 80/78/1
f 57/23/1 58/2/1 76/79/1 75/77/1
f 32/56/1 63/8/1 73/21/14 45/40/14
f 34/49/25 68/18/11 72/19/12 42/44/12
f 48/59/1 74/36/1 66/53/1 24/60/1
f 5/64/1 64/35/1 65/62/1 6/80/1
f 25/30/21 62/12/5 71/25/16 38/31/22
f 45/40/14 73/21/14 70/13/6 36/41/6
f 42/44/12 72/19/12 69/9/2 35/45/23
f 33/48/9 67/16/9 68/18/11 34/49/25
f 36/41/6 70/13/6 67/16/9 33/48/9
f 35/45/23 69/9/2 62/12/5 25/30/21
f 167/55/1 169/5/1 63/8/1 32/56/1
f 38/31/22 71/25/16 27/28/19 39/33/22
f 29/76/22 55/32/22 30/34/22 31/81/22
f 37/82/1 58/2/1 10/1/1 9/83/1
f 6/80/1 65/62/1 8/84/1 7/85/1
f 65/62/1 37/82/1 9/83/1 8/84/1
f 58/2/1 37/82/1 77/86/1 76/79/1
f 48/59/1 61/58/1 80/78/1 78/87/1
f 74/36/1 48/59/1 78/87/1 79/37/1
f 37/82/1 65/62/1 82/63/1 77/86/1
f 92/88/32 93/89/32 94/90/32 140/91/32
f 174/92/32 145/93/32 98/94/32 171/95/32
f 151/96/33 144/97/34 84/98/35 103/99/36
f 152/100/37 149/101/38 101/102/39 105/103/40
f 149/101/38 150/104/41 102/105/42 101/102/39
f 154/106/43 151/96/33 103/99/36 123/107/44
f 155/108/32 152/100/37 105/103/40 126/109/32
f 139/110/32 140/91/32 94/90/32 95/111/32
f 153/112/45 109/113/46 110/114/47 108/115/48
f 144/97/34 153/112/45 108/115/48 84/98/35
f 136/116/49 137/117/50 120/118/50 107/119/51
f 137/117/50 112/120/50 121/121/50 120/118/50
f 146/122/32 163/123/32 161/124/32 156/125/32
f 142/126/32 135/127/37 118/128/37 127/129/32
f 141/130/44 134/131/52 117/132/53 124/133/54
f 132/134/38 133/135/55 116/136/55 115/137/38
f 135/127/37 132/134/38 115/137/38 118/128/37
f 134/131/52 136/116/49 107/119/51 117/132/53
f 156/125/32 148/138/32 96/139/32 128/140/32
f 173/141/32 138/142/32 114/143/32 172/144/32
f 133/135/55 141/130/44 124/133/54 116/136/55
f 150/104/41 154/106/43 123/107/44 102/105/42
f 138/142/32 142/126/32 127/129/32 114/143/32
f 145/93/32 155/108/32 126/109/32 98/94/32
f 143/145/32 131/146/32 106/147/32 130/148/32
f 147/149/32 164/150/32 163/123/32 146/122/32
f 146/122/32 156/125/32 128/140/32 87/151/32
f 95/111/32 129/152/32 143/145/32 139/110/32
f 129/152/32 86/153/32 131/146/32 143/145/32
f 97/154/32 125/155/32 142/126/32 138/142/32
f 99/156/56 122/157/57 141/130/44 133/135/55
f 170/158/32 97/154/32 138/142/32 173/141/32
f 83/159/58 85/160/59 136/116/49 134/131/52
f 104/161/60 100/162/61 132/134/38 135/127/37
f 100/162/61 99/156/56 133/135/55 132/134/38
f 122/157/57 83/159/58 134/131/52 141/130/44
f 125/155/32 104/161/60 135/127/37 142/126/32
f 85/160/59 111/163/50 137/117/50 136/116/49
f 143/145/32 162/164/32 157/165/32 139/110/32
f 139/110/32 157/165/32 158/166/32 140/91/32
f 114/143/32 127/129/32 155/108/32 145/93/32
f 116/136/55 124/133/54 154/106/43 150/104/41
f 130/148/32 106/147/32 148/138/32 156/125/32
f 87/151/32 88/167/32 147/149/32 146/122/32
f 107/119/51 120/118/50 153/112/45 144/97/34
f 127/129/32 118/128/37 152/100/37 155/108/32
f 124/133/54 117/132/53 151/96/33 154/106/43
f 115/137/38 116/136/55 150/104/41 149/101/38
f 118/128/37 115/137/38 149/101/38 152/100/37
f 117/132/53 107/119/51 144/97/34 151/96/33
f 172/144/32 114/143/32 145/93/32 174/92/32
f 120/118/50 121/121/50 109/113/46 153/112/45
f 111/163/50 113/168/50 112/120/50 137/117/50
f 119/169/32 91/170/32 92/88/32 140/91/32
f 88/167/32 89/171/32 90/172/32 147/149/32
f 147/149/32 90/172/32 91/170/32 119/169/32
f 140/91/32 158/166/32 159/173/32 119/169/32
f 130/148/32 160/174/32 162/164/32 143/145/32
f 156/125/32 161/124/32 160/174/32 130/148/32
f 119/169/32 159/173/32 164/150/32 147/149/32
f 15/175/62 43/176/63 125/177/64 97/178/62
f 165/179/65 15/175/62 97/178/62 170/180/65
f 5/181/66 6/182/67 88/183/67 87/184/66
f 6/182/67 7/185/68 89/186/68 88/183/67
f 7/185/68 8/187/69 90/188/69 89/186/68
f 8/187/69 9/189/70 91/190/70 90/188/69
f 9/191/70 10/192/71 92/193/71 91/194/70
f 10/192/71 11/195/72 93/196/72 92/193/71
f 11/195/72 12/197/73 94/198/73 93/196/72
f 12/197/73 13/199/74 95/200/74 94/198/73
f 166/201/75 14/202/76 96/203/76 171/204/75
f 2/205/77 21/206/78 103/207/79 84/208/80
f 1/209/81 3/210/82 85/211/83 83/212/84
f 17/213/85 40/214/86 122/215/87 99/216/88
f 18/217/89 17/213/85 99/216/88 100/218/90
f 19/219/91 23/220/92 105/221/93 101/222/94
f 20/223/95 19/219/91 101/222/94 102/224/96
f 21/206/78 41/225/97 123/226/98 103/207/79
f 22/227/99 18/217/89 100/218/90 104/228/100
f 23/229/92 44/230/101 126/231/102 105/232/93
f 3/210/82 29/233/103 111/234/104 85/211/83
f 26/235/105 2/205/77 84/208/80 108/236/106
f 28/237/107 26/235/105 108/236/106 110/238/108
f 27/239/109 28/237/107 110/238/108 109/240/110
f 30/241/111 39/242/112 121/243/113 112/244/114
f 31/245/115 30/241/111 112/244/114 113/246/116
f 29/233/103 31/245/115 113/246/116 111/234/104
f 39/242/112 27/239/109 109/240/110 121/243/113
f 40/214/86 1/209/81 83/212/84 122/215/87
f 41/225/97 20/223/95 102/224/96 123/226/98
f 43/176/63 22/247/99 104/248/100 125/177/64
f 44/230/101 16/249/117 98/250/117 126/231/102
f 14/202/76 46/251/118 128/252/118 96/203/76
f 13/199/74 47/253/119 129/254/119 95/200/74
f 46/251/118 5/181/66 87/184/66 128/252/118
f 47/253/119 4/255/120 86/256/120 129/254/119
f 76/257/121 77/258/122 159/259/122 158/260/121
f 79/261/123 78/262/124 160/263/124 161/264/123
f 78/265/124 80/266/125 162/267/125 160/268/124
f 80/266/125 75/269/126 157/270/126 162/267/125
f 75/269/126 76/257/121 158/260/121 157/270/126
f 77/258/122 82/271/127 164/272/127 159/259/122
f 81/273/128 79/261/123 161/264/123 163/274/128
f 82/271/127 81/273/128 163/274/128 164/272/127
f 16/249/117 166/201/75 171/204/75 98/250/117
f 4/255/120 165/179/65 170/180/65 86/256/120
f 106/147/32 172/144/32 174/92/32 148/138/32
f 86/153/32 170/158/32 173/141/32 131/146/32
f 131/146/32 173/141/32 172/144/32 106/147/32
f 148/138/32 174/92/32 171/95/32 96/139/32
f 24/60/1 66/53/1 169/5/1 167/55/1
f 4/66/1 49/61/1 168/54/1 165/71/1
f 49/61/1 24/60/1 167/55/1 168/54/1
f 66/53/1 14/52/1 166/6/1 169/5/1
